<svg width="25" height="25" viewBox="0 0 25 25" fill="none" xmlns="http://www.w3.org/2000/svg">
<path d="M22.6057 22.6043L21.4071 9.32256C21.3035 8.1833 20.3628 7.32422 19.2189 7.32422H17.627V5.12695C17.627 2.29995 15.327 0 12.5 0C9.67301 0 7.37306 2.29995 7.37306 5.12695V7.32422H5.78107C4.63717 7.32422 3.69645 8.1833 3.59279 9.32305L2.39435 22.6038C2.27741 23.8894 3.29181 25 4.58253 25H20.4174C21.7076 25 22.7226 23.8896 22.6057 22.6043ZM16.8945 11.7188C17.2984 11.7188 17.627 12.0473 17.627 12.4512C17.627 12.855 17.2984 13.1836 16.8945 13.1836C16.4907 13.1836 16.1621 12.855 16.1621 12.4512C16.1621 12.0473 16.4906 11.7188 16.8945 11.7188ZM8.8379 5.12695C8.8379 3.10767 10.4807 1.46484 12.5 1.46484C14.5193 1.46484 16.1621 3.10767 16.1621 5.12695V7.32422H8.8379V5.12695ZM8.10548 11.7188C8.50934 11.7188 8.8379 12.0473 8.8379 12.4512C8.8379 12.855 8.50934 13.1836 8.10548 13.1836C7.70163 13.1836 7.37306 12.855 7.37306 12.4512C7.37306 12.0473 7.70158 11.7188 8.10548 11.7188ZM5.05167 9.45518C5.0862 9.07544 5.39982 8.78906 5.78107 8.78906H7.37306V10.3799C6.52057 10.6822 5.90822 11.4963 5.90822 12.4512C5.90822 13.6627 6.89391 14.6484 8.10548 14.6484C9.31706 14.6484 10.3027 13.6627 10.3027 12.4512C10.3027 11.4963 9.6904 10.6822 8.8379 10.3799V8.78906H16.1621V10.3799C15.3096 10.6822 14.6973 11.4963 14.6973 12.4512C14.6973 13.6627 15.683 14.6484 16.8945 14.6484C18.1061 14.6484 19.0918 13.6627 19.0918 12.4512C19.0918 11.4963 18.4795 10.6822 17.627 10.3799V8.78906H19.219C19.6003 8.78906 19.9138 9.07544 19.9484 9.45469L20.9545 20.6055H4.04547L5.05167 9.45518ZM20.4174 23.5352H4.58253C4.15211 23.5352 3.81398 23.1671 3.85319 22.7359L3.9133 22.0703H21.0867L21.1468 22.7364C21.186 23.1663 20.8485 23.5352 20.4174 23.5352Z" fill="#EFDDC9"/>
</svg>
